<svg width="22" height="16" viewBox="0 0 22 16" fill="none" xmlns="http://www.w3.org/2000/svg">
<path fill-rule="evenodd" clip-rule="evenodd" d="M19.128 15.997H2.864C1.285 15.997 0 14.647 0 12.988V2.671H0.065C0.233 1.178 1.399 0 2.864 0H19.128C20.594 0 21.76 1.178 21.927 2.671H21.992V12.988C21.992 14.647 20.708 15.997 19.128 15.997ZM19.128 1.012H2.864C1.93 1.012 1.188 1.737 1.029 2.671H20.963C20.805 1.737 20.062 1.012 19.128 1.012ZM21.028 3.683H0.965V4.614H21.028V3.683ZM21.028 5.625H0.965V12.988C0.965 14.089 1.816 14.985 2.864 14.985H19.128C20.176 14.985 21.028 14.089 21.028 12.988V5.625ZM18.504 13.708H16.832C16.7011 13.7043 16.577 13.6491 16.4868 13.5543C16.3965 13.4595 16.3473 13.3329 16.35 13.202C16.35 12.922 16.567 12.696 16.832 12.696H18.504C18.769 12.696 18.986 12.922 18.986 13.202C18.9887 13.3329 18.9395 13.4595 18.8492 13.5543C18.759 13.6491 18.6349 13.7043 18.504 13.708ZM14.63 13.708H12.96C12.8291 13.7043 12.705 13.6491 12.6148 13.5543C12.5245 13.4595 12.4753 13.3329 12.478 13.202C12.478 12.922 12.696 12.696 12.96 12.696H14.63C14.895 12.696 15.112 12.922 15.112 13.202C15.1147 13.3329 15.0655 13.4595 14.9752 13.5543C14.885 13.6491 14.7609 13.7043 14.63 13.708Z" fill="#1F1F1F"/>
</svg>
