<svg width="17" height="20" viewBox="0 0 17 20" fill="none" xmlns="http://www.w3.org/2000/svg">
<path fill-rule="evenodd" clip-rule="evenodd" d="M15.56 4.514H12.809C13.117 4.405 13.384 4.284 13.569 4.147C14.189 3.69 14.531 3.075 14.531 2.414C14.531 1.754 14.189 1.139 13.569 0.681C12.334 -0.228 10.401 -0.226 9.166 0.681C8.637 1.072 8.274 1.887 8.011 2.763C7.746 1.887 7.384 1.073 6.854 0.681C5.619 -0.228 3.686 -0.226 2.45 0.681C1.831 1.139 1.489 1.754 1.489 2.414C1.489 3.074 1.831 3.69 2.45 4.147C2.635 4.284 2.902 4.405 3.211 4.514H0.462C0.208 4.514 0 4.701 0 4.932V18.621C0 18.851 0.208 19.038 0.462 19.038H15.56C15.814 19.038 16.021 18.851 16.021 18.621V4.932C16.021 4.701 15.814 4.514 15.56 4.514ZM15.099 9.358H10.677V5.349H15.099V9.358ZM15.099 13.359H10.218L10.216 13.358L10.213 13.359H5.806L5.804 13.358L5.801 13.359H0.923V10.193H15.099V13.359ZM6.265 18.202V14.194H9.754V18.202H6.265ZM9.754 5.349V9.358H6.265V5.349H9.754ZM9.746 1.329C10.64 0.671 12.095 0.669 12.988 1.329C13.391 1.624 13.61 2.01 13.61 2.414C13.61 2.819 13.391 3.203 12.988 3.5C12.501 3.86 10.817 4.214 8.55 4.419C8.828 2.849 9.283 1.67 9.746 1.329ZM2.411 2.414C2.411 2.01 2.631 1.624 3.03 1.329C3.478 1 4.064 0.835 4.653 0.835C5.24 0.835 5.827 1 6.273 1.329C6.738 1.674 7.196 2.857 7.473 4.428C5.225 4.218 3.523 3.863 3.03 3.5C2.631 3.203 2.411 2.819 2.411 2.414ZM5.343 5.349V9.358H0.923V5.349H5.343ZM0.923 14.194H5.343V18.203H0.923V14.194ZM10.677 18.203V14.194H15.099V18.203H10.677Z" fill="black"/>
</svg>
