<svg width="24" height="18" viewBox="0 0 24 18" fill="none" xmlns="http://www.w3.org/2000/svg">
<g id="Group 3961">
<path id="Union" d="M1 8.25C0.585786 8.25 0.25 8.58579 0.25 9C0.25 9.41421 0.585786 9.75 1 9.75V8.25ZM22.3333 9.75C22.7475 9.75 23.0833 9.41421 23.0833 9C23.0833 8.58579 22.7475 8.25 22.3333 8.25V9.75ZM1 0.25C0.585786 0.25 0.25 0.585786 0.25 1C0.25 1.41421 0.585786 1.75 1 1.75V0.25ZM22.3333 1.75C22.7475 1.75 23.0833 1.41421 23.0833 1C23.0833 0.585786 22.7475 0.25 22.3333 0.25V1.75ZM1 16.25C0.585786 16.25 0.25 16.5858 0.25 17C0.25 17.4142 0.585786 17.75 1 17.75V16.25ZM22.3333 17.75C22.7475 17.75 23.0833 17.4142 23.0833 17C23.0833 16.5858 22.7475 16.25 22.3333 16.25V17.75ZM1 9.75H22.3333V8.25H1V9.75ZM1 1.75H22.3333V0.25H1V1.75ZM1 17.75H22.3333V16.25H1V17.75Z" fill="black"/>
</g>
</svg>
