<svg width="22" height="20" viewBox="0 0 22 20" fill="none" xmlns="http://www.w3.org/2000/svg">
<path d="M19.4578 2.56413C18.9691 2.06825 18.3889 1.67489 17.7503 1.40651C17.1117 1.13813 16.4272 1 15.7359 1C15.0446 1 14.3601 1.13813 13.7215 1.40651C13.0829 1.67489 12.5026 2.06825 12.0139 2.56413L10.9997 3.59276L9.98554 2.56413C8.99842 1.56297 7.6596 1.00052 6.26361 1.00052C4.86761 1.00052 3.52879 1.56297 2.54168 2.56413C1.55456 3.56529 1 4.92316 1 6.33901C1 7.75487 1.55456 9.11274 2.54168 10.1139L3.55588 11.1425L10.9997 18.6923L18.4436 11.1425L19.4578 10.1139C19.9467 9.61826 20.3346 9.02978 20.5992 8.38207C20.8638 7.73436 21 7.04012 21 6.33901C21 5.63791 20.8638 4.94367 20.5992 4.29596C20.3346 3.64825 19.9467 3.05977 19.4578 2.56413Z" stroke="black" stroke-width="1.2" stroke-linecap="round" stroke-linejoin="round"/>
</svg>
