<svg width="17" height="25" viewBox="0 0 17 25" fill="none" xmlns="http://www.w3.org/2000/svg">
<g clip-path="url(#clip0_1_1166)">
<path fill-rule="evenodd" clip-rule="evenodd" d="M9.53797 24.06L8.99497 24.984L8.45297 24.06C8.14697 23.542 0.982971 11.301 0.982971 7.42399C0.982971 3.33999 4.57697 0.0159912 8.99497 0.0159912C13.414 0.0159912 17.008 3.33999 17.008 7.42399C17.008 11.301 9.84397 23.542 9.53797 24.06ZM8.99497 1.15699C5.25797 1.15699 2.21697 3.96899 2.21697 7.42399C2.21697 10.429 7.29997 19.599 8.99497 22.575C10.691 19.599 15.774 10.429 15.774 7.42399C15.774 3.96899 12.733 1.15699 8.99497 1.15699ZM8.99497 11.074C6.81797 11.074 5.04797 9.43699 5.04797 7.42399C5.04797 5.41099 6.81797 3.77499 8.99497 3.77499C11.174 3.77499 12.943 5.41099 12.943 7.42399C12.943 9.43699 11.174 11.074 8.99497 11.074ZM8.99497 4.91599C7.49997 4.91599 6.28297 6.04199 6.28297 7.42399C6.28297 8.80699 7.49997 9.93299 8.99497 9.93299C10.491 9.93299 11.709 8.80699 11.709 7.42399C11.709 6.04199 10.491 4.91599 8.99497 4.91599Z" fill="black"/>
</g>
<defs>
<clipPath id="clip0_1_1166">
<rect width="17" height="25" fill="white"/>
</clipPath>
</defs>
</svg>
