<svg width="25" height="25" viewBox="0 0 25 25" fill="none" xmlns="http://www.w3.org/2000/svg">
<path fill-rule="evenodd" clip-rule="evenodd" d="M12.5 25C5.60797 25 0 19.392 0 12.5C0 5.60797 5.60797 0 12.5 0C19.3931 0 25 5.60797 25 12.5C25 19.392 19.3931 25 12.5 25ZM18.5225 22.0414C18.385 18.8276 15.7481 16.2501 12.5 16.2501C9.25394 16.2501 6.61501 18.8276 6.47755 22.0414C8.27711 23.1877 10.3664 23.7968 12.5 23.7972C14.7151 23.7972 16.7771 23.1473 18.5225 22.0414ZM15.0494 12.5C15.0485 11.8242 14.7796 11.1764 14.3017 10.6986C13.8237 10.2209 13.1758 9.95223 12.5 9.95168C11.8244 9.95251 11.1767 10.2213 10.699 10.699C10.2213 11.1767 9.95251 11.8244 9.95168 12.5C9.95251 13.1756 10.2213 13.8233 10.699 14.301C11.1767 14.7787 11.8244 15.0475 12.5 15.0483C13.1758 15.0478 13.8237 14.7791 14.3017 14.3014C14.7796 13.8236 15.0485 13.1758 15.0494 12.5ZM12.5 1.20178C6.27135 1.20178 1.20282 6.27031 1.20282 12.5C1.20282 14.1741 1.57552 15.8273 2.29388 17.3395C3.01223 18.8516 4.05823 20.1849 5.35595 21.2426C5.55221 19.9229 6.11012 18.6833 6.96782 17.6612C7.82552 16.6392 8.9495 15.8747 10.2152 15.4524C9.76109 15.1054 9.39282 14.6587 9.13876 14.1468C8.88471 13.6349 8.75166 13.0715 8.7499 12.5C8.75072 11.5056 9.14605 10.5521 9.84913 9.84882C10.5522 9.14555 11.5056 8.74996 12.5 8.74885C13.4945 8.74996 14.448 9.14552 15.1512 9.84876C15.8545 10.552 16.25 11.5055 16.2511 12.5C16.2494 13.0715 16.1163 13.6349 15.8623 14.1468C15.6082 14.6587 15.24 15.1054 14.7859 15.4524C16.0515 15.8749 17.1753 16.6397 18.0329 17.6619C18.8904 18.6841 19.4481 19.9239 19.644 21.2436C20.9417 20.1857 21.9877 18.8522 22.706 17.3399C23.4244 15.8275 23.7971 14.1743 23.7972 12.5C23.7972 6.27031 18.7297 1.20178 12.5 1.20178Z" fill="black"/>
</svg>
