<svg width="175" height="38" viewBox="0 0 175 38" fill="none" xmlns="http://www.w3.org/2000/svg">
<path fill-rule="evenodd" clip-rule="evenodd" d="M173.401 0.922C172.655 0.922 172.092 1.23 171.709 1.844C171.539 2.11 171.443 2.418 171.421 2.766V18.619C171.421 19.991 171.517 21.147 171.709 22.091L171.804 22.551H171.517L155.396 7.774V19.969C155.396 20.482 155.589 20.917 155.971 21.277C156.355 21.634 156.812 21.813 157.343 21.813H157.95V22.12H148.278V21.813H148.852C149.405 21.813 149.874 21.634 150.257 21.277C150.64 20.917 150.831 20.473 150.831 19.939V3.996C150.831 2.643 150.735 1.517 150.544 0.615L150.48 0.154H150.767L166.888 14.933V2.796C166.883 2.54376 166.826 2.2952 166.722 2.0655C166.618 1.8358 166.468 1.62978 166.281 1.46C165.912 1.10681 165.419 0.91345 164.909 0.922H164.335V0.615H174.007V0.922H173.401ZM137.664 21.813H137.952C138.419 21.813 138.765 21.675 138.989 21.398C139.213 21.122 139.324 20.86 139.324 20.615C139.324 20.37 139.268 20.125 139.164 19.879L133.919 7.436L128.47 19.879C128.365 20.1158 128.311 20.372 128.311 20.631C128.311 20.866 128.428 21.122 128.662 21.398C128.897 21.675 129.247 21.813 129.716 21.813H129.971V22.12H123.14V21.813H123.426C123.917 21.813 124.405 21.67 124.895 21.383C125.385 21.097 125.789 20.667 126.108 20.093L133.482 4.025C134.483 1.997 135.014 0.655 135.078 0H135.365L144.847 20.031C145.165 20.625 145.57 21.07 146.06 21.368C146.55 21.665 147.049 21.813 147.56 21.813H147.846V22.12H137.664V21.813ZM119.905 33.082L117.756 37.913H117.126L119.611 32.457H120.188L122.673 37.913H122.011L119.905 33.082ZM112.8 21.844H113.279C113.641 21.824 113.949 21.68 114.205 21.413C114.459 21.147 114.567 20.851 114.523 20.523L113.279 9.37C111.108 12.971 107.141 19.272 106.128 22.088H105.346L97.541 9.463L96.296 20.523C96.254 20.851 96.36 21.152 96.615 21.429C96.871 21.705 97.179 21.844 97.541 21.844H98.02V22.12H91.349V21.813H91.858C92.456 21.813 92.971 21.639 93.408 21.292C93.843 20.942 94.104 20.473 94.188 19.879L96.839 0.185H97.126L107.022 15.854L116.535 0.185H116.822L119.535 19.879C119.642 20.473 119.913 20.942 120.35 21.292C120.785 21.639 121.291 21.813 121.866 21.813H122.377V22.12H112.8V21.844ZM81.2 19.57C78.057 15.463 76.21 13.024 75.66 12.25V19.879C75.66 20.411 75.863 20.866 76.268 21.245C76.672 21.623 77.151 21.813 77.704 21.813H78.087L78.119 22.12H68.415V21.813H68.829C69.0917 21.8173 69.3526 21.7693 69.5966 21.6718C69.8406 21.5743 70.0627 21.4292 70.25 21.245C70.644 20.866 70.852 20.411 70.872 19.879V2.827C70.852 2.09 70.5 1.537 69.82 1.167C69.5158 1.0025 69.1748 0.918184 68.829 0.922H68.415V0.615H78.119L78.087 0.922H77.704C76.937 0.922 76.353 1.24 75.948 1.874C75.7583 2.15544 75.6579 2.48759 75.66 2.827V11.76L83.052 2.336C83.222 2.13 83.306 1.945 83.306 1.783C83.3098 1.63386 83.2776 1.486 83.212 1.352C83.041 1.045 82.743 0.892 82.316 0.892H81.998V0.615H89.308V0.892H89.181C87.755 0.892 86.594 1.383 85.701 2.366L79.477 9.463L87.425 19.909C88.405 21.137 89.489 21.772 90.68 21.813V22.12H88.063C84.828 22.12 82.541 21.271 81.2 19.57ZM57.972 22.535C53.865 22.525 50.64 21.526 48.3 19.54C45.959 17.553 44.787 14.828 44.787 11.367C44.787 7.906 45.948 5.177 48.267 3.18C50.587 1.183 53.768 0.185 57.813 0.185C60.898 0.185 63.549 0.737 65.761 1.844L65.825 7.128H65.569C64.484 3.359 62.005 1.474 58.132 1.474C55.62 1.474 53.636 2.351 52.178 4.102C50.721 5.853 49.991 8.244 49.991 11.276C49.991 14.307 50.689 16.713 52.082 18.495C53.476 20.277 55.366 21.198 57.749 21.26C60.217 21.26 62.1 20.667 63.399 19.478C64.719 18.249 65.634 16.14 66.145 13.15H66.399L66.719 18.433C64.995 21.178 62.079 22.545 57.972 22.535ZM43.337 33.525L41.35 36.428H41.319L39.333 33.534V37.913H38.732V32.496H39.356L41.343 35.452L43.331 32.496H43.953V37.913H43.337V33.525ZM42.005 1.337C41.687 1.614 41.516 1.957 41.495 2.366V14.348C41.495 16.867 40.675 18.865 39.038 20.339C37.398 21.813 35.153 22.551 32.301 22.551C28.939 22.551 26.364 21.828 24.577 20.386C22.788 18.941 21.894 16.939 21.894 14.379V2.459C21.874 1.844 21.586 1.393 21.033 1.106C20.7739 0.982397 20.4901 0.919471 20.203 0.922H19.692V0.615H28.885V0.922H28.374C27.908 0.922 27.513 1.06 27.194 1.337C27.039 1.46798 26.9134 1.63018 26.8253 1.813C26.7373 1.99582 26.6888 2.19516 26.683 2.398V14.133C26.683 16.304 27.236 18.024 28.343 19.295C29.45 20.564 30.971 21.199 32.907 21.199C34.845 21.199 36.376 20.6 37.505 19.401C38.632 18.203 39.207 16.58 39.228 14.533V2.398C39.186 1.804 38.898 1.373 38.366 1.106C38.1073 0.982412 37.8237 0.919482 37.537 0.922H37.026V0.615H43.697V0.922H43.154C42.707 0.922 42.325 1.06 42.005 1.337ZM10.087 22.12H0V21.813H0.414C1.18 21.813 1.767 21.495 2.17 20.86C2.34 20.573 2.436 20.257 2.457 19.909V2.827C2.45006 2.57116 2.39137 2.31938 2.28447 2.08684C2.17757 1.85431 2.02467 1.64583 1.835 1.474C1.45237 1.11027 0.941831 0.911947 0.414 0.922H0V0.614H9.257C11.724 0.614 13.688 1.044 15.147 1.906C16.604 2.765 17.344 4.087 17.365 5.868C17.344 6.77 17.142 7.558 16.759 8.234C16.057 9.504 14.95 10.231 13.439 10.414C15.078 10.558 16.428 11.147 17.492 12.182C18.557 13.216 19.089 14.532 19.089 16.13C19.089 18.055 18.285 19.535 16.678 20.568C15.072 21.604 12.875 22.12 10.087 22.12ZM12.13 11.981C11.151 11.163 9.885 10.753 8.331 10.753V10.476C9.438 10.476 10.364 10.133 11.108 9.448C11.854 8.761 12.237 7.701 12.257 6.268C12.237 3.38 10.874 1.936 8.17 1.936H7.245V20.707H8.778C10.246 20.707 11.416 20.298 12.288 19.478C13.162 18.658 13.599 17.41 13.599 15.729C13.599 14.051 13.109 12.802 12.13 11.981ZM56.452 33.054H53.125V34.903H56.103V35.46H53.125V37.356H56.492V37.913H52.509V32.496H56.452V33.054ZM68.757 36.837V32.496H69.356V37.913H68.866L65.345 33.471V37.913H64.744V32.496H65.321L68.757 36.837ZM78.801 37.252C79.093 37.379 79.428 37.441 79.806 37.441C80.176 37.441 80.47 37.356 80.692 37.187C80.7971 37.1094 80.882 37.0077 80.9394 36.8904C80.9969 36.773 81.0252 36.6436 81.022 36.513C81.0245 36.3953 81.0035 36.2784 80.96 36.169C80.9126 36.0596 80.837 35.9647 80.741 35.894C80.6096 35.7969 80.4639 35.721 80.309 35.669C80.0786 35.5889 79.8431 35.5245 79.604 35.476C79.3273 35.4183 79.0553 35.3405 78.79 35.243C78.5829 35.1695 78.3893 35.0624 78.217 34.926C78.0723 34.8105 77.9574 34.6621 77.882 34.493C77.8052 34.3067 77.7681 34.1064 77.773 33.905C77.7714 33.7008 77.8162 33.499 77.9041 33.3147C77.9919 33.1303 78.1204 32.9684 78.28 32.841C78.44 32.708 78.63 32.606 78.849 32.53C79.067 32.456 79.306 32.418 79.565 32.418C79.965 32.418 80.315 32.474 80.614 32.585C80.912 32.696 81.202 32.862 81.482 33.084L81.123 33.556C80.8941 33.3647 80.6349 33.213 80.356 33.107C80.0975 33.0143 79.8247 32.9675 79.55 32.969C79.372 32.969 79.214 32.992 79.071 33.037C78.928 33.084 78.806 33.147 78.705 33.224C78.6067 33.2963 78.5268 33.3907 78.4719 33.4997C78.417 33.6086 78.3886 33.729 78.389 33.851C78.389 33.979 78.41 34.096 78.451 34.199C78.4997 34.3112 78.5774 34.4086 78.676 34.481C78.786 34.566 78.937 34.643 79.129 34.714C79.321 34.783 79.569 34.848 79.869 34.91C80.477 35.045 80.926 35.23 81.213 35.468C81.501 35.705 81.647 36.033 81.647 36.45C81.6496 36.6648 81.6035 36.8774 81.5122 37.0719C81.421 37.2664 81.2869 37.4377 81.12 37.573C80.9455 37.7131 80.7455 37.8181 80.531 37.882C80.302 37.955 80.054 37.992 79.783 37.992C79.3744 37.9965 78.9687 37.9239 78.587 37.778C78.2064 37.6239 77.8568 37.4023 77.555 37.124L77.936 36.675C78.222 36.933 78.511 37.126 78.801 37.252ZM91.526 37.007L93.023 32.48H93.529L95.026 37.007L96.584 32.496H97.231L95.283 37.952H94.761L93.265 33.556L91.76 37.952H91.246L89.299 32.496H89.969L91.526 37.007ZM109.303 33.054H105.975V34.903H108.951V35.46H105.975V37.356H109.341V37.913H105.359V32.496H109.303V33.054ZM133.922 32.612C134.164 32.689 134.371 32.798 134.542 32.94C134.713 33.082 134.845 33.252 134.939 33.453C135.033 33.65 135.08 33.871 135.08 34.114C135.08 34.34 135.044 34.544 134.97 34.721C134.9 34.8955 134.795 35.0538 134.662 35.186C134.524 35.3208 134.365 35.4317 134.191 35.514C134.003 35.6037 133.804 35.6663 133.599 35.7L135.275 37.913H134.518L132.937 35.808H131.378V37.913H130.762V32.496H133.108C133.409 32.496 133.68 32.535 133.922 32.612ZM131.378 33.061V35.259H133.054C133.256 35.259 133.443 35.233 133.614 35.181C133.785 35.129 133.934 35.057 134.059 34.961C134.185 34.8644 134.287 34.7394 134.356 34.5963C134.425 34.4532 134.459 34.2958 134.456 34.137C134.456 33.796 134.334 33.532 134.09 33.343C133.846 33.155 133.502 33.061 133.061 33.061H131.378Z" fill="black"/>
</svg>
