<svg width="50" height="16" viewBox="0 0 50 16" fill="none" xmlns="http://www.w3.org/2000/svg">
<path d="M16.29 0.539999V15H13.92V5.66C13.92 5.28667 13.94 4.88333 13.98 4.45L9.61 12.66C9.40333 13.0533 9.08667 13.25 8.66 13.25H8.28C7.85333 13.25 7.53667 13.0533 7.33 12.66L2.91 4.42C2.93 4.64 2.94667 4.85667 2.96 5.07C2.97333 5.28333 2.98 5.48 2.98 5.66V15H0.61V0.539999H2.64C2.76 0.539999 2.86333 0.543332 2.95 0.549999C3.03667 0.556666 3.11333 0.573332 3.18 0.599999C3.25333 0.626666 3.31667 0.669999 3.37 0.73C3.43 0.789999 3.48667 0.869999 3.54 0.969999L7.87 9C7.98333 9.21333 8.08667 9.43333 8.18 9.66C8.28 9.88667 8.37667 10.12 8.47 10.36C8.56333 10.1133 8.66 9.87667 8.76 9.65C8.86 9.41667 8.96667 9.19333 9.08 8.98L13.35 0.969999C13.4033 0.869999 13.46 0.789999 13.52 0.73C13.58 0.669999 13.6433 0.626666 13.71 0.599999C13.7833 0.573332 13.8633 0.556666 13.95 0.549999C14.0367 0.543332 14.14 0.539999 14.26 0.539999H16.29ZM25.4238 8.69C25.4238 8.37 25.3771 8.07 25.2838 7.79C25.1971 7.50333 25.0638 7.25333 24.8838 7.04C24.7038 6.82667 24.4738 6.66 24.1938 6.54C23.9204 6.41333 23.6004 6.35 23.2338 6.35C22.5204 6.35 21.9571 6.55333 21.5438 6.96C21.1371 7.36667 20.8771 7.94333 20.7638 8.69H25.4238ZM20.7138 10.18C20.7538 10.7067 20.8471 11.1633 20.9938 11.55C21.1404 11.93 21.3338 12.2467 21.5738 12.5C21.8138 12.7467 22.0971 12.9333 22.4238 13.06C22.7571 13.18 23.1238 13.24 23.5238 13.24C23.9238 13.24 24.2671 13.1933 24.5538 13.1C24.8471 13.0067 25.1004 12.9033 25.3138 12.79C25.5338 12.6767 25.7238 12.5733 25.8838 12.48C26.0504 12.3867 26.2104 12.34 26.3638 12.34C26.5704 12.34 26.7238 12.4167 26.8238 12.57L27.5338 13.47C27.2604 13.79 26.9538 14.06 26.6138 14.28C26.2738 14.4933 25.9171 14.6667 25.5438 14.8C25.1771 14.9267 24.8004 15.0167 24.4138 15.07C24.0338 15.1233 23.6638 15.15 23.3038 15.15C22.5904 15.15 21.9271 15.0333 21.3138 14.8C20.7004 14.56 20.1671 14.21 19.7138 13.75C19.2604 13.2833 18.9038 12.71 18.6438 12.03C18.3838 11.3433 18.2537 10.55 18.2537 9.65C18.2537 8.95 18.3671 8.29333 18.5938 7.68C18.8204 7.06 19.1438 6.52333 19.5638 6.07C19.9904 5.61 20.5071 5.24667 21.1138 4.98C21.7271 4.71333 22.4171 4.58 23.1838 4.58C23.8304 4.58 24.4271 4.68333 24.9738 4.89C25.5204 5.09667 25.9904 5.4 26.3838 5.8C26.7771 6.19333 27.0838 6.68 27.3038 7.26C27.5304 7.83333 27.6437 8.49 27.6437 9.23C27.6437 9.60333 27.6038 9.85667 27.5238 9.99C27.4438 10.1167 27.2904 10.18 27.0638 10.18H20.7138ZM31.8073 6C32.014 5.79333 32.2307 5.60333 32.4573 5.43C32.6907 5.25 32.934 5.1 33.1873 4.98C33.4473 4.85333 33.724 4.75667 34.0173 4.69C34.3107 4.61667 34.6307 4.58 34.9773 4.58C35.5373 4.58 36.034 4.67667 36.4673 4.87C36.9007 5.05667 37.2607 5.32333 37.5473 5.67C37.8407 6.01 38.0607 6.42 38.2073 6.9C38.3607 7.37333 38.4373 7.89667 38.4373 8.47V15H35.9673V8.47C35.9673 7.84333 35.824 7.36 35.5373 7.02C35.2507 6.67333 34.814 6.5 34.2273 6.5C33.8007 6.5 33.4007 6.59667 33.0273 6.79C32.654 6.98333 32.3007 7.24667 31.9673 7.58V15H29.4973V4.74H31.0073C31.3273 4.74 31.5373 4.89 31.6373 5.19L31.8073 6ZM49.6264 4.74V15H48.1164C47.7897 15 47.5831 14.85 47.4964 14.55L47.3264 13.73C46.9064 14.1567 46.4431 14.5033 45.9364 14.77C45.4297 15.03 44.8331 15.16 44.1464 15.16C43.5864 15.16 43.0897 15.0667 42.6564 14.88C42.2297 14.6867 41.8697 14.4167 41.5764 14.07C41.2831 13.7233 41.0597 13.3133 40.9064 12.84C40.7597 12.36 40.6864 11.8333 40.6864 11.26V4.74H43.1564V11.26C43.1564 11.8867 43.2997 12.3733 43.5864 12.72C43.8797 13.06 44.3164 13.23 44.8964 13.23C45.3231 13.23 45.7231 13.1367 46.0964 12.95C46.4697 12.7567 46.8231 12.4933 47.1564 12.16V4.74H49.6264Z" fill="black"/>
</svg>
