<svg width="20" height="20" viewBox="0 0 20 20" fill="none" xmlns="http://www.w3.org/2000/svg">
<path fill-rule="evenodd" clip-rule="evenodd" d="M19.99 1.14996C19.9088 2.85718 19.4602 4.52679 18.6748 6.0448C17.8894 7.56281 16.7857 8.89347 15.439 9.94596L14.53 10.655V12.816C14.5329 13.6975 14.3616 14.571 14.0259 15.3861C13.6903 16.2013 13.1968 16.9421 12.574 17.566L10.27 19.884C10.2163 19.9378 10.1481 19.9748 10.0737 19.9905C9.99932 20.0062 9.92196 20 9.85106 19.9726C9.78016 19.9451 9.71878 19.8976 9.67438 19.8359C9.62998 19.7742 9.60449 19.7009 9.601 19.625L9.349 14.699L9.082 14.908C9.02197 14.9552 8.94938 14.9836 8.87327 14.9899C8.79716 14.9961 8.7209 14.9798 8.654 14.943C8.53822 14.8792 8.42386 14.8128 8.311 14.744C8.121 14.901 7.919 15.071 7.721 15.237C7.443 15.47 7.156 15.712 6.907 15.915C6.84948 15.9614 6.78006 15.9907 6.70668 15.9995C6.63329 16.0084 6.5589 15.9964 6.492 15.965C5.41145 15.455 4.54382 14.5824 4.04 13.499C4.00784 13.4306 3.99593 13.3544 4.00568 13.2794C4.01543 13.2045 4.04642 13.1339 4.095 13.076L5.251 11.695C5.16752 11.558 5.08749 11.4189 5.011 11.278C4.97385 11.2093 4.95782 11.1312 4.96493 11.0534C4.97205 10.9757 5.002 10.9017 5.051 10.841L5.25 10.595L0.373001 10.343C0.296993 10.3389 0.223801 10.3129 0.162359 10.2679C0.100917 10.223 0.0538845 10.1612 0.0270013 10.09C0.000135375 10.0188 -0.0057599 9.94136 0.010014 9.86693C0.0257878 9.79249 0.0625697 9.72413 0.116001 9.66996L2.42 7.35196C3.03713 6.72709 3.77249 6.23134 4.58321 5.89363C5.39392 5.55592 6.26376 5.383 7.142 5.38496H7.154L9.403 5.45096L10.263 4.38696C11.2873 3.11903 12.5631 2.07697 14.01 1.32642C15.4569 0.575862 17.0435 0.133077 18.67 0.0259554L19.035 0.00195538C19.1631 -0.0064737 19.2915 0.0124133 19.4118 0.0573649C19.532 0.102317 19.6413 0.172307 19.7325 0.262698C19.8236 0.353089 19.8945 0.461817 19.9405 0.581679C19.9864 0.70154 20.0064 0.829798 19.999 0.957955L19.99 1.14996ZM10.339 18.699L12.019 17.009C12.5689 16.4583 13.0046 15.8044 13.301 15.0848C13.5973 14.3652 13.7486 13.5942 13.746 12.816V11.268L10.105 14.11L10.339 18.699ZM4.862 13.385C5.26063 14.1281 5.86789 14.7385 6.609 15.141C6.804 14.98 7.013 14.803 7.218 14.632L7.628 14.288C7.24427 14.0056 6.88347 13.6933 6.549 13.354L6.547 13.353C6.24502 13.0464 5.96468 12.7193 5.708 12.374L4.862 13.385ZM7.137 6.17395C6.36279 6.17273 5.59607 6.32559 4.88152 6.62364C4.16697 6.92168 3.51888 7.35895 2.975 7.90996L1.294 9.59996L5.862 9.83596L8.781 6.22196L7.137 6.17395ZM19.179 0.824955C19.1669 0.812506 19.1522 0.802839 19.136 0.796623C19.1197 0.790407 19.1023 0.787791 19.085 0.788955L18.719 0.812955C17.2009 0.913321 15.72 1.32683 14.3696 2.02745C13.0191 2.72807 11.8283 3.70064 10.872 4.88396L5.828 11.13C6.116 11.623 6.453 12.085 6.834 12.509L8.906 10.425C8.94226 10.3884 8.98541 10.3593 9.03295 10.3395C9.08049 10.3197 9.13149 10.3095 9.183 10.3095C9.23451 10.3095 9.28551 10.3197 9.33305 10.3395C9.3806 10.3593 9.42374 10.3884 9.46 10.425C9.53341 10.4993 9.57457 10.5995 9.57457 10.704C9.57457 10.8084 9.53341 10.9086 9.46 10.983L7.387 13.069C7.822 13.47 8.297 13.824 8.807 14.124L14.958 9.32296C16.2152 8.34053 17.2456 7.09839 17.9789 5.68134C18.7122 4.26429 19.1311 2.70569 19.207 1.11196L19.216 0.919955C19.2169 0.902403 19.2141 0.884855 19.2077 0.868477C19.2013 0.852099 19.1915 0.837263 19.179 0.824955ZM14.386 7.44496C13.958 7.44496 13.531 7.28096 13.205 6.95396C12.8926 6.63765 12.7175 6.211 12.7175 5.76646C12.7175 5.32191 12.8926 4.89526 13.205 4.57896C13.3594 4.42277 13.5434 4.29884 13.7461 4.21438C13.9488 4.12991 14.1664 4.0866 14.386 4.08696C14.832 4.08696 15.251 4.26196 15.566 4.57896C16.217 5.23396 16.217 6.29895 15.566 6.95396C15.4115 7.10971 15.2277 7.23329 15.0251 7.31757C14.8226 7.40185 14.6054 7.44514 14.386 7.44496ZM15.011 5.13696C14.9294 5.05378 14.8321 4.9877 14.7247 4.94259C14.6173 4.89748 14.502 4.87425 14.3855 4.87425C14.269 4.87425 14.1537 4.89748 14.0463 4.94259C13.9389 4.9877 13.8416 5.05378 13.76 5.13696C13.5942 5.30452 13.5012 5.53073 13.5012 5.76646C13.5012 6.00218 13.5942 6.22839 13.76 6.39596C13.842 6.47841 13.9394 6.54384 14.0468 6.58849C14.1541 6.63314 14.2692 6.65612 14.3855 6.65612C14.5018 6.65612 14.6169 6.63314 14.7242 6.58849C14.8316 6.54384 14.929 6.47841 15.011 6.39596C15.1768 6.22839 15.2698 6.00218 15.2698 5.76646C15.2698 5.53073 15.1768 5.30452 15.011 5.13696ZM10.43 9.97496C10.3254 9.97496 10.225 9.93339 10.151 9.85941C10.0771 9.78543 10.0355 9.68508 10.0355 9.58045C10.0355 9.47583 10.0771 9.37548 10.151 9.3015C10.225 9.22752 10.3254 9.18596 10.43 9.18596C10.5346 9.18596 10.635 9.22752 10.709 9.3015C10.7829 9.37548 10.8245 9.47583 10.8245 9.58045C10.8245 9.68508 10.7829 9.78543 10.709 9.85941C10.635 9.93339 10.5346 9.97496 10.43 9.97496ZM0.393001 19.209C0.610001 19.209 0.786001 19.386 0.786001 19.605C0.786133 19.6567 0.776072 19.708 0.756393 19.7558C0.736714 19.8037 0.707802 19.8472 0.671309 19.8839C0.634815 19.9205 0.591455 19.9497 0.543703 19.9696C0.495951 19.9895 0.444742 19.9998 0.393001 20C0.34126 19.9998 0.290052 19.9895 0.2423 19.9696C0.194548 19.9497 0.151187 19.9205 0.114694 19.8839C0.0782003 19.8472 0.0492887 19.8037 0.0296097 19.7558C0.00993074 19.708 -0.000130216 19.6567 1.27237e-06 19.605C1.27237e-06 19.386 0.176001 19.209 0.393001 19.209ZM2.448 15.408L3.386 14.938C3.47843 14.9001 3.58178 14.8986 3.67524 14.9339C3.7687 14.9691 3.84533 15.0385 3.8897 15.128C3.93407 15.2175 3.94288 15.3205 3.91436 15.4162C3.88584 15.512 3.82211 15.5933 3.736 15.644L2.798 16.114C2.59656 16.2156 2.425 16.3678 2.30017 16.5558C2.17535 16.7437 2.10154 16.9609 2.086 17.186L2.049 17.733C2.04647 17.7662 2.05114 17.7996 2.0627 17.8309C2.07425 17.8622 2.09242 17.8906 2.11595 17.9143C2.13949 17.9379 2.16785 17.9562 2.19909 17.9679C2.23034 17.9795 2.26373 17.9844 2.297 17.982L2.84 17.945C3.0646 17.9286 3.28106 17.854 3.468 17.7284C3.65494 17.6028 3.80591 17.4307 3.906 17.229L4.373 16.285C4.39577 16.2387 4.42748 16.1973 4.46629 16.1634C4.5051 16.1294 4.55026 16.1034 4.59915 16.087C4.64805 16.0705 4.69971 16.0639 4.75118 16.0675C4.80264 16.0711 4.85288 16.0848 4.899 16.108C4.99234 16.1549 5.06327 16.237 5.09625 16.3361C5.12924 16.4353 5.1216 16.5434 5.075 16.637L4.608 17.58C4.44734 17.9046 4.20469 18.1816 3.90407 18.3837C3.60345 18.5858 3.25527 18.7058 2.894 18.732L2.35 18.769C2.20505 18.7787 2.05969 18.7573 1.92375 18.706C1.7878 18.6548 1.66444 18.575 1.562 18.472C1.45901 18.3685 1.37938 18.2442 1.32849 18.1075C1.2776 17.9707 1.25664 17.8245 1.267 17.679L1.304 17.133C1.32869 16.7709 1.44714 16.4215 1.64771 16.1191C1.84828 15.8166 2.12408 15.5716 2.448 15.408Z" fill="#1F1F1F"/>
</svg>
